<?xml version="1.0" encoding="UTF-8" standalone="no"?>
<svg width="155px" height="224px" viewBox="0 0 155 224" version="1.1" xmlns="http://www.w3.org/2000/svg" xmlns:xlink="http://www.w3.org/1999/xlink" xmlns:sketch="http://www.bohemiancoding.com/sketch/ns">
    <!-- Generator: Sketch 3.0.3 (7891) - http://www.bohemiancoding.com/sketch -->
    <title>fingerprint</title>
    <desc>Created with Sketch.</desc>
    <defs></defs>
    <g id="FTU" stroke="none" stroke-width="1" fill="none" fill-rule="evenodd" sketch:type="MSPage">
        <g id="50" sketch:type="MSArtboardGroup" transform="translate(-241.000000, -409.000000)" fill="#FFFFFF">
            <g id="fingerprint" sketch:type="MSLayerGroup" transform="translate(242.000000, 410.000000)">
                <path d="M3.38,62.2017079 C4.8675,62.5249326 6.2475,62.502382 10.4875,59.2400674 C12.37,57.7893146 15.1525,55.3488427 17.7225,51.9412022 L18.8475,50.4453483 C28.4725,37.6140787 51.0075,7.57422472 83.555,9.20788764 C110.395,11.1697865 129.4225,31.4853371 138.575,67.959618 C138.8875,69.1998989 139.075,69.9591011 139.285,70.5454157 C140.6825,76.5087865 143.03,83.9404494 146.41,86.3884382 C147.245,86.9947978 148.2175,87.2854494 149.18,87.2854494 C150.6475,87.2854494 152.1,86.6039213 153.025,85.3160337 C154.505,83.2639326 154.11,80.4225618 152.17,78.8490337 C151.235,77.6363146 149.4775,72.5599326 148.43,68.0197528 C148.37,67.7491461 148.2825,67.4885618 148.175,67.2354944 C148.0875,66.9247978 147.9175,66.2482809 147.765,65.6419213 C146.315,59.8589551 142.46,44.5020225 133.115,30.0596404 C121.045,11.4078202 104.5825,1.2024382 84.185,-0.270865169 C84.1525,-0.275876404 84.12,-0.275876404 84.085,-0.275876404 C46.4875,-2.20019101 21.8075,30.6935618 11.2725,44.7375506 L10.165,46.2133596 C7.28,50.034427 3.8725,52.414764 2.6975,53.103809 C2.3025,53.2616629 1.9175,53.4746404 1.56,53.7452472 C0.085,54.8652584 -0.635,56.7745393 -0.2375,58.5835955 C0.16,60.3901461 1.5725,61.8058202 3.38,62.2017079 Z M122.07,80.4150449 C125.645,71.4599663 125.735,62.2092247 122.305,55.0356404 C119.2525,48.6337865 113.555,43.9983933 105.835,41.6280787 C94.5025,38.1527865 80.765,44.459427 68.18,58.9118315 C68.02,59.0897303 50.105,77.974573 31.2925,89.5204607 C31.155,89.6031461 17.3825,97.8817079 3,101.810517 C0.475,102.497056 -1.015,105.110416 -0.3275,107.638584 C0.3575,110.169258 2.9625,111.665112 5.49,110.971056 C21.1325,106.706494 35.585,98.0195169 36.2175,97.6386629 C56.625,85.1130787 75.135,65.3763258 75.29,65.1909101 C82.9325,56.4187416 94.24,48.007382 103.0575,50.7134494 C108.25,52.3070225 111.85,55.1408764 113.7575,59.1398427 C116.0425,63.9230674 115.865,70.3950787 113.27,76.8921461 C108.4425,88.9842584 93.4075,103.581989 70.9325,118.006831 C59.665,125.240551 31.2925,143.000371 11.25,151.584618 C8.8425,152.616933 7.7275,155.40318 8.755,157.818596 C9.525,159.62264 11.275,160.702562 13.115,160.702562 C13.7375,160.702562 14.37,160.579787 14.9775,160.321708 C35.6675,151.449315 64.5775,133.368775 76.045,126.00727 C93.11,115.052708 114.9475,98.2525393 122.07,80.4150449 Z M45.7475,44.9555393 C43.5975,47.3308652 41.6675,49.8815843 39.5875,52.3145393 C36.865,55.504191 33.89,58.4833708 30.7825,61.2946742 C27.5875,64.1861573 25.0025,66.2532921 21.235,68.4256629 C17.2375,70.720809 13.1625,73.0460225 9.0225,75.0680562 C7.5975,75.764618 6.3725,76.2156292 4.77,76.6992135 C2.3,77.443382 0.765,79.9991124 1.4625,82.5423146 C2.1325,84.992809 4.8175,86.606427 7.2925,85.8622584 C12.1375,84.3989775 16.53,81.8983708 20.9025,79.4077865 C24.6,77.3030674 28.2675,75.4063146 31.6625,72.8180112 C38.2825,67.7742022 43.9775,61.886 49.215,55.4390449 C51.3375,52.828191 53.605,50.342618 55.975,47.954764 C57.2675,46.6518427 58.605,45.3965281 59.9725,44.1662697 C60.6825,43.5273371 61.405,42.9059438 62.1375,42.2870562 C62.5075,41.9763596 62.8825,41.6681685 63.26,41.3599775 C63.3575,41.2797978 64.0925,40.6984944 64.28,40.5481573 C67.58,38.0149775 71.0975,35.762427 74.7975,33.8581573 C78.2925,32.056618 81.7975,30.7987978 86.05,29.9093034 C87.46,29.6161461 87.7675,29.583573 88.8225,29.4758315 C91.39,29.210236 93.5625,27.5164382 93.5625,24.7276854 C93.5625,22.3373258 91.3975,19.7089326 88.8225,19.9770337 C71.69,21.7585281 57.0375,32.4925955 45.7475,44.9555393 Z M8.8675,135.901955 C19.1625,132.361517 72.0225,112.579663 101.625,70.9939213 C103.145,68.8591348 102.65,65.8949888 100.52,64.3690674 C98.3875,62.8456517 95.4275,63.341764 93.9075,65.4765506 C65.9875,104.704506 15.605,123.539236 5.7875,126.92182 C5.5775,126.991978 5.4475,127.037079 5.4025,127.052112 C2.955,127.986708 1.7225,130.725348 2.65,133.178348 C3.3675,135.077607 5.17,136.242719 7.085,136.242719 C7.62,136.242719 8.1675,136.152517 8.7,135.96209 L8.8675,135.901955 Z M137.82,164.177854 C131.2525,161.982933 123.2125,156.247573 115.4425,150.700135 C104.185,142.659607 94.4675,135.721551 86.5475,137.087112 C80.5975,138.119427 70.2,144.77936 53.7875,155.618663 C41.9575,163.436191 28.545,172.296056 22.7125,173.869584 C20.185,174.556124 18.6875,177.159461 19.3675,179.690135 C19.9375,181.814899 21.85,183.208022 23.9425,183.208022 C24.35,183.208022 24.765,183.155404 25.175,183.045157 C32.4875,181.068225 45.37,172.55664 59.0075,163.551449 C70.0225,156.272629 83.73,147.21482 88.16,146.448101 C92.1825,145.759056 102.0325,152.782303 109.945,158.432472 C118.285,164.38582 126.9075,170.542124 134.8225,173.188056 C137.3075,174.01491 139.99,172.669393 140.8175,170.18382 C141.645,167.698247 140.3025,165.007213 137.82,164.177854 Z M125.955,187.445022 C122.135,186.061921 115.925,182.215798 109.92,178.497461 C97.235,170.642348 89.1725,165.874157 83.3875,166.873899 C77.5275,167.89118 65.22,176.272472 44.565,191.391371 C42.035,193.240517 39.8525,194.836596 38.3375,195.911506 C36.2025,197.427404 35.6925,200.389045 37.2,202.531348 C38.1275,203.841787 39.59,204.540854 41.075,204.540854 C42.02,204.540854 42.975,204.257719 43.805,203.671404 C45.38,202.556404 47.59,200.93527 50.1525,199.066079 C58.3725,193.05009 80.2125,177.069258 84.9525,176.249921 C87.9075,176.046966 98.57,182.639247 104.94,186.58309 C111.6525,190.737404 117.9925,194.663708 122.7375,196.385067 C125.195,197.277067 127.915,195.999202 128.805,193.528663 C129.6925,191.055618 128.42,188.337022 125.955,187.445022 Z M109.95,211.057966 C107.2875,209.316562 104.8425,207.562629 102.4725,205.873843 C94.7025,200.308865 87.9825,195.50309 80.62,196.788472 C72.3275,198.224191 59.125,211.531528 56.56,214.179966 C54.74,216.066697 54.79,219.073438 56.67,220.900034 C57.59,221.787022 58.7775,222.238034 59.9625,222.238034 C61.2025,222.238034 62.44,221.754449 63.3675,220.789787 C69.715,214.220056 78.7325,206.75582 82.23,206.149461 C85.69,205.553124 90.92,209.281483 96.9675,213.60618 C99.2975,215.274921 101.94,217.161652 104.77,219.015809 C106.96,220.449022 109.9,219.830135 111.33,217.632708 C112.7575,215.432775 112.14,212.493685 109.95,211.057966 Z M151.65,113.01564 C147.7,111.344393 143.57,109.585449 140.245,106.81173 C136.585,103.759888 134.8825,99.7534045 134.12,95.1255281 C133.13,89.092 123.995,91.6602584 124.98,97.6486854 C127.0075,109.968809 136.055,116.64127 146.865,121.214022 C149.245,122.226292 151.9175,121.963202 153.3475,119.512708 C154.53,117.498191 154.03,114.025404 151.65,113.01564 Z M142.4525,137.798708 C138.895,136.698742 136.1925,135.308124 132.4275,133.078124 C125.53,128.993966 119.24,123.075697 116.18,115.513742 C115.21,113.118371 113.0625,111.449629 110.35,112.198809 C108.0775,112.825213 106.07,115.639022 107.04,118.044416 C112.6875,131.998202 125.6525,142.54936 139.935,146.961753 C145.7925,148.765798 148.2775,139.597742 142.4525,137.798708 Z" id="Shape" sketch:type="MSShapeGroup"></path>
            </g>
        </g>
    </g>
</svg>